<svg width="23" height="23" viewBox="0 0 23 23" fill="none" xmlns="http://www.w3.org/2000/svg">
<path d="M9.16723 11.5C9.16723 10.2114 10.2116 9.16648 11.5003 9.16648C12.7889 9.16648 13.8339 10.2114 13.8339 11.5C13.8339 12.7886 12.7889 13.8335 11.5003 13.8335C10.2116 13.8335 9.16723 12.7886 9.16723 11.5ZM7.90571 11.5C7.90571 13.4852 9.51498 15.0944 11.5003 15.0944C13.4856 15.0944 15.0949 13.4852 15.0949 11.5C15.0949 9.51478 13.4856 7.90557 11.5003 7.90557C9.51498 7.90557 7.90571 9.51478 7.90571 11.5ZM14.3971 7.76309C14.3971 8.22674 14.7731 8.60331 15.2373 8.60331C15.701 8.60331 16.0776 8.22674 16.0776 7.76309C16.0776 7.29943 15.7016 6.92342 15.2373 6.92342C14.7731 6.92342 14.3971 7.29943 14.3971 7.76309ZM8.6719 17.1978C7.9894 17.1667 7.61846 17.0531 7.37193 16.9569C7.04509 16.8297 6.81213 16.6782 6.56672 16.4334C6.32188 16.1885 6.16978 15.9556 6.04312 15.6288C5.94699 15.3822 5.83333 15.0113 5.80223 14.3288C5.76831 13.591 5.76152 13.3693 5.76152 11.5C5.76152 9.63069 5.76887 9.40961 5.80223 8.67116C5.83333 7.98869 5.94755 7.61834 6.04312 7.37124C6.17034 7.04443 6.32188 6.81147 6.56672 6.56607C6.81156 6.32124 7.04453 6.16914 7.37193 6.04249C7.61846 5.94636 7.9894 5.83271 8.6719 5.80162C9.40981 5.76769 9.63147 5.7609 11.5003 5.7609C13.3697 5.7609 13.5908 5.76826 14.3292 5.80162C15.0117 5.83271 15.3821 5.94693 15.6292 6.04249C15.956 6.16914 16.189 6.32124 16.4344 6.56607C16.6792 6.8109 16.8308 7.04443 16.958 7.37124C17.0541 7.61777 17.1678 7.98869 17.1989 8.67116C17.2328 9.40961 17.2396 9.63069 17.2396 11.5C17.2396 13.3687 17.2328 13.5904 17.1989 14.3288C17.1678 15.0113 17.0536 15.3822 16.958 15.6288C16.8308 15.9556 16.6792 16.1885 16.4344 16.4334C16.1896 16.6782 15.956 16.8297 15.6292 16.9569C15.3827 17.0531 15.0117 17.1667 14.3292 17.1978C13.5913 17.2317 13.3697 17.2385 11.5003 17.2385C9.63147 17.2385 9.40981 17.2317 8.6719 17.1978ZM8.61422 4.54241C7.86896 4.57633 7.36005 4.69451 6.91504 4.86753C6.45476 5.0462 6.0646 5.28595 5.67501 5.67496C5.28598 6.06397 5.04623 6.45412 4.86754 6.91494C4.69452 7.35994 4.57634 7.86882 4.54241 8.61405C4.50792 9.36042 4.5 9.59903 4.5 11.5C4.5 13.401 4.50792 13.6396 4.54241 14.3859C4.57634 15.1312 4.69452 15.6401 4.86754 16.0851C5.04623 16.5453 5.28541 16.936 5.67501 17.325C6.06404 17.7141 6.4542 17.9532 6.91504 18.1325C7.36062 18.3055 7.86896 18.4237 8.61422 18.4576C9.36118 18.4915 9.59924 18.5 11.5003 18.5C13.4019 18.5 13.6399 18.4921 14.3863 18.4576C15.1316 18.4237 15.6405 18.3055 16.0855 18.1325C16.5458 17.9532 16.936 17.7141 17.3256 17.325C17.7146 16.936 17.9538 16.5453 18.133 16.0851C18.3061 15.6401 18.4248 15.1312 18.4582 14.3859C18.4921 13.639 18.5 13.401 18.5 11.5C18.5 9.59903 18.4921 9.36042 18.4582 8.61405C18.4242 7.86882 18.3061 7.35994 18.133 6.91494C17.9538 6.45468 17.7146 6.06454 17.3256 5.67496C16.9365 5.28595 16.5458 5.0462 16.0861 4.86753C15.6405 4.69451 15.1316 4.57577 14.3869 4.54241C13.6405 4.50848 13.4019 4.5 11.5008 4.5C9.59924 4.5 9.36118 4.50792 8.61422 4.54241Z" fill="#A6A6A6"/>
</svg>
