<svg width="21" height="21" viewBox="0 0 21 21" fill="none" xmlns="http://www.w3.org/2000/svg">
<g clip-path="url(#clip0_32394_18)">
<path fill-rule="evenodd" clip-rule="evenodd" d="M20.0395 5.30526C20.1802 4.83158 20.0395 4.5 19.383 4.5H17.1946C16.6318 4.5 16.3817 4.8 16.241 5.13158C16.241 5.13158 15.1312 7.87895 13.5524 9.64737C13.0366 10.1684 12.8177 10.3263 12.5363 10.3263C12.3957 10.3263 12.1924 10.1684 12.1924 9.69474V5.30526C12.1924 4.73684 12.0361 4.5 11.5672 4.5H8.12823C7.78433 4.5 7.56549 4.76842 7.56549 5.00526C7.56549 5.5421 8.34707 5.66842 8.44086 7.15263V10.4053C8.44086 11.1158 8.31581 11.2421 8.03444 11.2421C7.29975 11.2421 5.48648 8.49474 4.42353 5.33684C4.20469 4.75263 4.00148 4.5 3.43874 4.5H1.25032C0.625053 4.5 0.5 4.8 0.5 5.13158C0.5 5.71579 1.23469 8.62105 3.95459 12.4579C5.76785 15.0789 8.31581 16.5 10.6293 16.5C12.0205 16.5 12.1924 16.1842 12.1924 15.6474V13.6579C12.1924 13.0263 12.3175 12.9 12.7708 12.9C13.0991 12.9 13.6462 13.0579 14.9436 14.3211C16.4286 15.8211 16.6787 16.5 17.5072 16.5H19.6956C20.3209 16.5 20.6335 16.1842 20.4459 15.5684C20.2427 14.9526 19.5393 14.0526 18.6014 12.9789C18.0856 12.3632 17.3196 11.7158 17.1008 11.3842C16.7725 10.9579 16.8663 10.7684 17.1008 10.4053C17.1008 10.3895 19.7738 6.6 20.0395 5.30526Z" fill="#A6A6A6"/>
</g>
<defs>
<clipPath id="clip0_32394_18">
<rect width="20" height="20" fill="white" transform="translate(0.5 0.5)"/>
</clipPath>
</defs>
</svg>
